<?xml version="1.0" encoding="UTF-8" standalone="no"?>
<!-- Created with Inkscape (http://www.inkscape.org/) -->

<svg
   xmlns:dc="http://purl.org/dc/elements/1.1/"
   xmlns:cc="http://creativecommons.org/ns#"
   xmlns:rdf="http://www.w3.org/1999/02/22-rdf-syntax-ns#"
   xmlns:svg="http://www.w3.org/2000/svg"
   xmlns="http://www.w3.org/2000/svg"
   xmlns:xlink="http://www.w3.org/1999/xlink"
   xmlns:sodipodi="http://sodipodi.sourceforge.net/DTD/sodipodi-0.dtd"
   xmlns:inkscape="http://www.inkscape.org/namespaces/inkscape"
   inkscape:export-ydpi="96.000008"
   inkscape:export-xdpi="96.000008"
   inkscape:export-filename="/home/starlord/Android/UNCmorfi/resources/UNCmorfi-banner.png"
   sodipodi:docname="UNCmorfi-banner-v1.1.svg"
   inkscape:version="0.92.1 r"
   id="svg8"
   version="1.1"
   viewBox="0 0 270.93333 132.29167"
   height="500"
   width="1024">
  <sodipodi:namedview
     inkscape:window-maximized="1"
     inkscape:window-y="0"
     inkscape:window-x="0"
     inkscape:window-height="1001"
     inkscape:window-width="1920"
     units="px"
     showgrid="false"
     inkscape:current-layer="layer3"
     inkscape:document-units="mm"
     inkscape:cy="264.4518"
     inkscape:cx="550.86292"
     inkscape:zoom="1"
     inkscape:pageshadow="2"
     inkscape:pageopacity="0.0"
     borderopacity="1.0"
     bordercolor="#666666"
     pagecolor="#ffffff"
     id="base"
     showguides="true"
     inkscape:guide-bbox="true"
     inkscape:lockguides="false"
     inkscape:measure-start="105.598,354.321"
     inkscape:measure-end="200.5,366.5" />
  <defs
     id="defs2">
    <linearGradient
       gradientTransform="translate(-91.177734,-377.53711)"
       gradientUnits="userSpaceOnUse"
       y2="877.53711"
       x2="338.75391"
       y1="695.75732"
       x1="338.75391"
       id="linearGradient1644"
       xlink:href="#linearGradient1478"
       inkscape:collect="always" />
    <linearGradient
       inkscape:collect="always"
       id="linearGradient1478">
      <stop
         style="stop-color:#000000;stop-opacity:0.25098041"
         offset="0"
         id="stop1474" />
      <stop
         style="stop-color:#000000;stop-opacity:0;"
         offset="1"
         id="stop1476" />
    </linearGradient>
    <linearGradient
       inkscape:collect="always"
       xlink:href="#linearGradient1478"
       id="linearGradient5726"
       gradientUnits="userSpaceOnUse"
       gradientTransform="matrix(0.26458333,0,0,0.26458333,-24.124108,-99.890026)"
       x1="338.75391"
       y1="695.75732"
       x2="338.75391"
       y2="877.53711" />
  </defs>
  <metadata
     id="metadata5">
    <rdf:RDF>
      <cc:Work
         rdf:about="">
        <dc:format>image/svg+xml</dc:format>
        <dc:type
           rdf:resource="http://purl.org/dc/dcmitype/StillImage" />
        <dc:title />
      </cc:Work>
    </rdf:RDF>
  </metadata>
  <g
     style="display:inline"
     transform="translate(0,-164.70832)"
     id="layer1"
     inkscape:groupmode="layer"
     inkscape:label="Fondo">
    <rect
       y="164.70831"
       x="7.1207683e-06"
       height="132.29167"
       width="270.93329"
       id="rect193-1"
       style="display:inline;opacity:1;fill:#ff5252;fill-opacity:1;stroke:none;stroke-width:0.27637208px;stroke-linecap:butt;stroke-linejoin:miter;stroke-miterlimit:4;stroke-dasharray:none;stroke-dashoffset:0;stroke-opacity:1;font-variant-east_asian:normal;vector-effect:none"
       inkscape:export-filename="/home/aidea775/UNCmorfi-bannerv2-dark.png"
       inkscape:export-xdpi="96"
       inkscape:export-ydpi="96" />
  </g>
  <g
     style="display:inline"
     inkscape:label="Letras"
     id="layer2"
     inkscape:groupmode="layer">
    <g
       aria-label="UNCmorfi"
       transform="matrix(0.26458333,0,0,0.26458333,-20.283596,10.682904)"
       style="font-style:normal;font-variant:normal;font-weight:bold;font-stretch:normal;font-size:106.66667175px;line-height:125%;font-family:'Noto Sans';-inkscape-font-specification:'Noto Sans Bold';letter-spacing:0px;word-spacing:0px;display:inline;opacity:1;vector-effect:none;fill:#f0f0f0;fill-opacity:1;stroke:none;stroke-width:1.29800975;stroke-linecap:butt;stroke-linejoin:miter;stroke-miterlimit:4;stroke-dasharray:none;stroke-dashoffset:0;stroke-opacity:1"
       id="flowRoot1040-5">
      <path
         d="m 555.84766,173.7643 v 49.27083 q 0,8.4375 -3.80208,14.79167 -3.75,6.35417 -10.88542,9.73958 -7.13542,3.38542 -16.875,3.38542 -14.6875,0 -22.8125,-7.5 -8.125,-7.55208 -8.125,-20.625 v -49.0625 h 16.09375 v 46.61458 q 0,8.80209 3.54166,12.91667 3.54167,4.11458 11.71875,4.11458 7.91667,0 11.45834,-4.11458 3.59375,-4.16667 3.59375,-13.02083 V 173.7643 Z"
         style=""
         id="path9367" />
      <path
         d="m 642.04558,249.91013 h -20.52083 l -33.125,-57.60417 H 587.931 q 0.98958,15.26042 0.98958,21.77084 v 35.83333 H 574.4935 V 173.7643 h 20.36458 l 33.07292,57.03125 h 0.36458 q -0.78125,-14.84375 -0.78125,-20.98959 V 173.7643 h 14.53125 z"
         style=""
         id="path9369" />
      <path
         d="m 693.50393,186.10805 q -9.11459,0 -14.11459,6.875 -5,6.82291 -5,19.0625 0,25.46875 19.11459,25.46875 8.02083,0 19.42708,-4.01042 v 13.54167 q -9.375,3.90625 -20.9375,3.90625 -16.61458,0 -25.41667,-10.05208 -8.80208,-10.10417 -8.80208,-28.95834 0,-11.875 4.32292,-20.78125 4.32291,-8.95833 12.39583,-13.69792 8.125,-4.79166 19.01042,-4.79166 11.09375,0 22.29167,5.36458 l -5.20834,13.125 q -4.27083,-2.03125 -8.59375,-3.54167 -4.32291,-1.51041 -8.48958,-1.51041 z"
         style=""
         id="path9371" />
      <path
         d="m 779.96225,249.91013 h -15.88541 v -34.01041 q 0,-6.30209 -2.13542,-9.42709 -2.08333,-3.17708 -6.61459,-3.17708 -6.09375,0 -8.85416,4.47916 -2.76042,4.47917 -2.76042,14.73959 v 27.39583 h -15.88542 v -58.22917 h 12.13542 l 2.13542,7.44792 h 0.88541 q 2.34375,-4.01042 6.77084,-6.25 4.42708,-2.29167 10.15625,-2.29167 13.07292,0 17.70833,8.54167 h 1.40625 q 2.34375,-4.0625 6.875,-6.30208 4.58334,-2.23959 10.3125,-2.23959 9.89584,0 14.94792,5.10417 5.10417,5.05208 5.10417,16.25 v 37.96875 h -15.9375 v -34.01041 q 0,-6.30209 -2.13542,-9.42709 -2.08333,-3.17708 -6.61458,-3.17708 -5.83334,0 -8.75,4.16666 -2.86459,4.16667 -2.86459,13.22917 z"
         style=""
         id="path9373" />
      <path
         d="m 845.27477,220.69138 q 0,8.64584 2.8125,13.07292 2.86458,4.42708 9.27084,4.42708 6.35416,0 9.11458,-4.375 2.8125,-4.42708 2.8125,-13.125 0,-8.64583 -2.8125,-12.96875 -2.8125,-4.32292 -9.21875,-4.32292 -6.35417,0 -9.16667,4.32292 -2.8125,4.27084 -2.8125,12.96875 z m 40.26042,0 q 0,14.21875 -7.5,22.23959 -7.5,8.02083 -20.88542,8.02083 -8.38542,0 -14.79167,-3.64583 -6.40625,-3.69792 -9.84375,-10.57292 -3.4375,-6.875 -3.4375,-16.04167 0,-14.27083 7.44792,-22.1875 7.44792,-7.91667 20.9375,-7.91667 8.38542,0 14.79167,3.64584 6.40625,3.64583 9.84375,10.46875 3.4375,6.82292 3.4375,15.98958 z"
         style=""
         id="path9375" />
      <path
         d="m 931.16018,190.58721 q 3.22917,0 5.36458,0.46875 l -1.19791,14.89584 q -1.92709,-0.52084 -4.6875,-0.52084 -7.60417,0 -11.87501,3.90625 -4.21875,3.90626 -4.21875,10.93751 v 29.63541 h -15.88541 v -58.22917 h 12.03125 l 2.34375,9.79167 h 0.78125 q 2.70833,-4.89583 7.29166,-7.86458 4.63542,-3.02084 10.05209,-3.02084 z"
         style=""
         id="path9377" />
      <path
         d="m 979.38937,203.60805 h -13.75001 v 46.30208 h -15.88541 v -46.30208 h -8.75 v -7.65625 l 8.75,-4.27084 v -4.27083 q 0,-9.94792 4.89583,-14.53125 4.89583,-4.58333 15.67709,-4.58333 8.22916,0 14.63541,2.44791 l -4.0625,11.66667 q -4.79166,-1.51042 -8.85416,-1.51042 -3.38542,0 -4.89584,2.03125 -1.51042,1.97917 -1.51042,5.10417 v 3.64583 h 13.75001 z m 8.4375,-26.97917 q 0,-7.76042 8.64583,-7.76042 8.6458,0 8.6458,7.76042 0,3.69792 -2.1875,5.78125 -2.1354,2.03125 -6.4583,2.03125 -8.64583,0 -8.64583,-7.8125 z m 16.56253,73.28125 h -15.88545 v -58.22917 h 15.88545 z"
         style=""
         id="path9379" />
    </g>
  </g>
  <g
     style="display:inline"
     inkscape:label="Plato"
     id="layer3"
     inkscape:groupmode="layer">
    <g
       transform="translate(-6.3938517,-17.320978)"
       id="g1053">
      <path
         id="path5-7-2"
         d="m 34.000204,101.53579 c -0.908635,0 -1.646017,-0.73577 -1.646017,-1.646021 0,-9.983288 8.123217,-18.106506 18.106454,-18.106506 h 3.292087 c 0.908636,0 1.64607,0.73577 1.64607,1.64607 0,0.910247 -0.737434,1.646017 -1.64607,1.646017 h -3.292087 c -8.167682,0 -14.814367,6.645073 -14.814367,14.814419 0,0.910251 -0.737434,1.646021 -1.64607,1.646021 z"
         style="opacity:1;vector-effect:none;fill:#ffb74d;fill-opacity:1;stroke-width:0.33091465;stroke-linecap:butt;stroke-linejoin:miter;stroke-miterlimit:4;stroke-dasharray:none;stroke-dashoffset:0;stroke-opacity:1"
         inkscape:connector-curvature="0" />
      <path
         id="path7-4-8"
         d="m 43.876466,101.53579 c -0.908583,0 -1.646017,-0.73577 -1.646017,-1.646021 0,-4.538132 3.692059,-8.230244 8.230192,-8.230244 h 8.230244 c 0.908636,0 1.646018,0.73577 1.646018,1.64607 0,0.910247 -0.737382,1.646017 -1.646018,1.646017 h -8.230244 c -2.722526,0 -4.938105,2.215579 -4.938105,4.938157 0,0.910251 -0.737434,1.646021 -1.64607,1.646021 z"
         style="opacity:1;vector-effect:none;fill:#ffb74d;fill-opacity:1;stroke-width:0.33091465;stroke-linecap:butt;stroke-linejoin:miter;stroke-miterlimit:4;stroke-dasharray:none;stroke-dashoffset:0;stroke-opacity:1"
         inkscape:connector-curvature="0" />
      <path
         id="path9-2-8"
         d="m 38.938361,101.53579 c -0.908635,0 -1.646069,-0.73577 -1.646069,-1.646021 0,-7.26071 5.907638,-13.168349 13.168349,-13.168349 h 6.584175 c 0.908635,0 1.646069,0.73577 1.646069,1.646018 0,0.910247 -0.737434,1.646069 -1.646069,1.646069 h -6.584175 c -5.446768,0 -9.876262,4.429494 -9.876262,9.876262 0,0.910251 -0.737434,1.646021 -1.646018,1.646021 z"
         style="opacity:1;vector-effect:none;fill:#ffb74d;fill-opacity:1;stroke-width:0.33091465;stroke-linecap:butt;stroke-linejoin:miter;stroke-miterlimit:4;stroke-dasharray:none;stroke-dashoffset:0;stroke-opacity:1"
         inkscape:connector-curvature="0" />
      <path
         id="path11-7-9"
         d="m 58.690885,99.889769 h -8.230244 c -0.908584,0 -1.646018,-0.73577 -1.646018,-1.646069 0,-0.910248 0.737434,-1.646018 1.646018,-1.646018 h 8.230244 c 0.908636,0 1.646018,0.73577 1.646018,1.646018 0,0.910299 -0.737382,1.646069 -1.646018,1.646069 z"
         style="opacity:1;vector-effect:none;fill:#ffb74d;fill-opacity:1;stroke-width:0.33091465;stroke-linecap:butt;stroke-linejoin:miter;stroke-miterlimit:4;stroke-dasharray:none;stroke-dashoffset:0;stroke-opacity:1"
         inkscape:connector-curvature="0" />
      <path
         id="path13-88-0"
         d="m 103.13409,101.53579 c -0.90864,0 -1.64607,-0.73577 -1.64607,-1.646021 0,-8.169346 -6.646684,-14.814419 -14.814367,-14.814419 H 75.151322 c -0.908636,0 -1.646018,-0.73577 -1.646018,-1.646017 0,-0.9103 0.737382,-1.64607 1.646018,-1.64607 h 11.522331 c 9.983237,0 18.106457,8.123218 18.106457,18.106506 0,0.910251 -0.73738,1.646021 -1.64602,1.646021 z"
         style="opacity:1;vector-effect:none;fill:#ff9800;fill-opacity:1;stroke-width:0.33091465;stroke-linecap:butt;stroke-linejoin:miter;stroke-miterlimit:4;stroke-dasharray:none;stroke-dashoffset:0;stroke-opacity:1"
         inkscape:connector-curvature="0" />
      <path
         id="path15-4-8"
         d="m 93.257828,101.53579 c -0.908635,0 -1.64607,-0.73577 -1.64607,-1.646021 0,-2.722578 -2.215579,-4.938157 -4.938105,-4.938157 h -8.230244 c -0.908583,0 -1.646017,-0.73577 -1.646017,-1.646017 0,-0.9103 0.737434,-1.64607 1.646017,-1.64607 h 8.230244 c 4.538133,0 8.230193,3.692112 8.230193,8.230244 0,0.910251 -0.737434,1.646021 -1.646018,1.646021 z"
         style="opacity:1;vector-effect:none;fill:#ff9800;fill-opacity:1;stroke-width:0.33091465;stroke-linecap:butt;stroke-linejoin:miter;stroke-miterlimit:4;stroke-dasharray:none;stroke-dashoffset:0;stroke-opacity:1"
         inkscape:connector-curvature="0" />
      <path
         id="path17-4-7"
         d="m 98.195933,101.53579 c -0.908583,0 -1.646018,-0.73577 -1.646018,-1.646021 0,-5.446768 -4.429493,-9.876262 -9.876262,-9.876262 h -9.876261 c -0.908636,0 -1.64607,-0.735822 -1.64607,-1.646069 0,-0.910248 0.737434,-1.646018 1.64607,-1.646018 h 9.876261 c 7.260711,0 13.16835,5.907639 13.16835,13.168349 0,0.910251 -0.737434,1.646021 -1.64607,1.646021 z"
         style="opacity:1;vector-effect:none;fill:#ff9800;fill-opacity:1;stroke-width:0.33091465;stroke-linecap:butt;stroke-linejoin:miter;stroke-miterlimit:4;stroke-dasharray:none;stroke-dashoffset:0;stroke-opacity:1"
         inkscape:connector-curvature="0" />
      <path
         id="path19-1-8"
         d="m 86.673653,99.889769 h -8.230244 c -0.908583,0 -1.646017,-0.73577 -1.646017,-1.646069 0,-0.910248 0.737434,-1.646018 1.646017,-1.646018 h 8.230244 c 0.908584,0 1.646018,0.73577 1.646018,1.646018 0,0.910299 -0.737434,1.646069 -1.646018,1.646069 z"
         style="opacity:1;vector-effect:none;fill:#ff9800;fill-opacity:1;stroke-width:0.33091465;stroke-linecap:butt;stroke-linejoin:miter;stroke-miterlimit:4;stroke-dasharray:none;stroke-dashoffset:0;stroke-opacity:1"
         inkscape:connector-curvature="0" />
      <path
         id="path21-6-5"
         d="m 80.089479,80.137245 c -0.908636,0 -1.64607,-0.735822 -1.64607,-1.646069 0,-4.538133 -3.692059,-8.230245 -8.230192,-8.230245 -0.908636,0 -1.64607,-0.73577 -1.64607,-1.646017 0,-0.910248 0.737434,-1.64607 1.64607,-1.64607 6.353687,0 11.522279,5.170256 11.522279,11.522332 0,0.910247 -0.737434,1.646069 -1.646017,1.646069 z"
         style="opacity:1;vector-effect:none;fill:#ffa726;fill-opacity:1;stroke-width:0.33091465;stroke-linecap:butt;stroke-linejoin:miter;stroke-miterlimit:4;stroke-dasharray:none;stroke-dashoffset:0;stroke-opacity:1"
         inkscape:connector-curvature="0" />
      <path
         inkscape:connector-curvature="0"
         id="path23-4-0"
         transform="matrix(0.26458333,0,0,0.26458333,6.3938517,17.320978)"
         d="m 241.20703,168.98242 c -13.72427,0 -24.88476,11.16069 -24.88476,24.88477 0,3.4403 2.78648,6.2207 6.2207,6.2207 3.43421,0 6.2207,-2.7804 6.2207,-6.2207 0,-6.86214 5.58122,-12.44336 12.44336,-12.44336 27.44186,0 49.76953,22.32943 49.76953,49.77148 0,3.44031 2.78864,6.22071 6.22266,6.22071 3.43421,0 6.2207,-2.7804 6.2207,-6.22071 0,-34.30399 -27.9089,-62.21289 -62.21289,-62.21289 z"
         style="opacity:1;vector-effect:none;fill:#ffa726;fill-opacity:1;stroke-width:1.25070107;stroke-linecap:butt;stroke-linejoin:miter;stroke-miterlimit:4;stroke-dasharray:none;stroke-dashoffset:0;stroke-opacity:1" />
      <path
         id="path25-8-5"
         d="m 75.151322,80.137245 c -0.908636,0 -1.646018,-0.735822 -1.646018,-1.646069 0,-1.815607 -1.476532,-3.292088 -3.292087,-3.292088 -0.908636,0 -1.64607,-0.73577 -1.64607,-1.646069 0,-0.910248 0.737434,-1.646018 1.64607,-1.646018 3.631161,0 6.584175,2.953013 6.584175,6.584175 0,0.910247 -0.737435,1.646069 -1.64607,1.646069 z"
         style="opacity:1;vector-effect:none;fill:#ffa726;fill-opacity:1;stroke-width:0.33091465;stroke-linecap:butt;stroke-linejoin:miter;stroke-miterlimit:4;stroke-dasharray:none;stroke-dashoffset:0;stroke-opacity:1"
         inkscape:connector-curvature="0" />
      <path
         id="path27-3-7"
         d="m 89.965741,80.137245 c -0.908636,0 -1.64607,-0.735822 -1.64607,-1.646069 0,-9.983237 -8.123217,-18.106491 -18.106454,-18.106491 H 66.92113 c -2.722578,0 -4.938157,2.215579 -4.938157,4.938141 0,0.910248 -0.737435,1.646018 -1.64607,1.646018 -0.908584,0 -1.646018,-0.73577 -1.646018,-1.646018 0,-4.538148 3.69206,-8.230228 8.230245,-8.230228 h 3.292087 c 11.798843,0 21.398541,9.599734 21.398541,21.398578 0,0.910247 -0.737434,1.646069 -1.646017,1.646069 z"
         style="opacity:1;vector-effect:none;fill:#ffa726;fill-opacity:1;stroke-width:0.33091465;stroke-linecap:butt;stroke-linejoin:miter;stroke-miterlimit:4;stroke-dasharray:none;stroke-dashoffset:0;stroke-opacity:1"
         inkscape:connector-curvature="0" />
      <path
         id="path31-1-0"
         d="m 63.62899,101.53579 c -0.908583,0 -1.646017,-0.73577 -1.646017,-1.646021 0,-14.399625 -4.307698,-21.398593 -13.16835,-21.398593 -0.906971,0 -1.646069,0.737434 -1.646069,1.646069 0,0.910248 -0.737435,1.646018 -1.646018,1.646018 -0.908636,0 -1.64607,-0.73577 -1.64607,-1.646018 0,-2.722578 2.215579,-4.938157 4.938157,-4.938157 7.509244,0 16.460437,4.28466 16.460437,24.690681 0,0.910251 -0.737434,1.646021 -1.64607,1.646021 z"
         style="opacity:1;vector-effect:none;fill:#ffb74d;fill-opacity:1;stroke-width:0.33091465;stroke-linecap:butt;stroke-linejoin:miter;stroke-miterlimit:4;stroke-dasharray:none;stroke-dashoffset:0;stroke-opacity:1"
         inkscape:connector-curvature="0" />
      <path
         id="path33-5-7"
         d="M 75.151322,101.53579 H 66.92113 v -1.646021 c 0,-7.919149 -1.76459,-26.33675 -18.106507,-26.33675 -4.538133,0 -8.230244,3.692111 -8.230244,8.230244 v 1.64607 c 0,0.910247 -0.737434,1.646017 -1.646018,1.646017 -0.908635,0 -1.646069,-0.73577 -1.646069,-1.646017 v -1.64607 c 0,-6.352075 5.168592,-11.522332 11.522331,-11.522332 12.998812,0 20.916297,10.421121 21.377168,27.982769 h 1.644405 C 71.408245,83.620244 65.191123,68.614914 48.816235,68.614914 h -1.646017 c -7.260711,0 -13.16835,5.907638 -13.16835,13.168349 v 8.230244 c 0,0.910248 -0.737434,1.646018 -1.646069,1.646018 -0.908584,0 -1.646018,-0.73577 -1.646018,-1.646018 v -8.230244 c 0,-9.076265 7.384119,-16.460437 16.460437,-16.460437 h 1.646017 c 12.732182,0 26.336751,9.081206 26.336751,34.566943 v 1.646021 z"
         style="opacity:1;vector-effect:none;fill:#ffb74d;fill-opacity:1;stroke-width:0.33091465;stroke-linecap:butt;stroke-linejoin:miter;stroke-miterlimit:4;stroke-dasharray:none;stroke-dashoffset:0;stroke-opacity:1"
         inkscape:connector-curvature="0" />
    </g>
    <path
       style="display:inline;opacity:1;vector-effect:none;fill:url(#linearGradient5726);fill-opacity:1;stroke-width:0.52005231;stroke-linecap:butt;stroke-linejoin:miter;stroke-miterlimit:4;stroke-dasharray:none;stroke-dashoffset:0;stroke-opacity:1"
       d="m 108.44454,82.535529 c -30.234758,0.07688 -60.476776,0.01124 -90.714356,0.03307 5.011446,8.46538 13.047086,14.441405 19.638124,21.584291 9.37623,9.3821 18.743919,18.77275 28.136219,28.13877 31.361565,0 62.723133,0 94.084693,0 C 143.07432,115.7665 126.54709,99.258357 110.04066,82.719494 L 109.6282,82.59402 Z"
       id="path6288"
       inkscape:connector-curvature="0" />
    <path
       id="path47-3"
       d="M 97.413448,92.445052 H 30.225232 c -3.692112,0 -7.140579,-1.8452 -9.188233,-4.91839 L 17.73009,82.568791 h 92.1785 l -3.30525,4.957871 c -2.04931,3.07319 -5.49617,4.91839 -9.189892,4.91839 z"
       style="opacity:1;vector-effect:none;fill:#f0f0f0;fill-opacity:1;stroke-width:0.34343174;stroke-linecap:butt;stroke-linejoin:miter;stroke-miterlimit:4;stroke-dasharray:none;stroke-dashoffset:0;stroke-opacity:1"
       inkscape:connector-curvature="0" />
    <path
       style="display:inline;opacity:1;vector-effect:none;fill:#000000;fill-opacity:0.15609759;stroke-width:0.34343174;stroke-linecap:butt;stroke-linejoin:miter;stroke-miterlimit:4;stroke-dasharray:none;stroke-dashoffset:0;stroke-opacity:1"
       d="m 17.730184,82.568602 3.306775,4.957836 c 2.047653,3.073191 5.495957,4.918565 9.18807,4.918565 H 97.41369 c 3.69372,0 7.14031,-1.845374 9.18962,-4.918565 l 3.30522,-4.957836 h -0.35294 l -2.95228,4.42867 c -2.04931,3.073191 -5.4959,4.918564 -9.18962,4.918564 H 30.225029 c -3.692113,0 -7.140417,-1.845373 -9.18807,-4.918564 l -2.953825,-4.42867 z"
       id="path47-3-3"
       inkscape:connector-curvature="0" />
    <g
       id="g8292"
       transform="translate(-6.3938517,-17.320978)" />
  </g>
</svg>
