<?xml version="1.0" encoding="UTF-8" standalone="no"?>
<!-- Created with Inkscape (http://www.inkscape.org/) -->

<svg
   inkscape:export-ydpi="96.000008"
   inkscape:export-xdpi="96.000008"
   inkscape:export-filename="/home/aidea775/UNCmorfi-bannerv5.png"
   sodipodi:docname="UNCmorfi-monocromatico.svg"
   inkscape:version="1.2.2 (b0a8486, 2022-12-01)"
   id="svg8"
   version="1.1"
   viewBox="0 0 28.574999 28.575"
   height="108"
   width="108"
   xmlns:inkscape="http://www.inkscape.org/namespaces/inkscape"
   xmlns:sodipodi="http://sodipodi.sourceforge.net/DTD/sodipodi-0.dtd"
   xmlns:xlink="http://www.w3.org/1999/xlink"
   xmlns="http://www.w3.org/2000/svg"
   xmlns:svg="http://www.w3.org/2000/svg"
   xmlns:rdf="http://www.w3.org/1999/02/22-rdf-syntax-ns#"
   xmlns:cc="http://creativecommons.org/ns#"
   xmlns:dc="http://purl.org/dc/elements/1.1/">
  <sodipodi:namedview
     inkscape:window-maximized="1"
     inkscape:window-y="32"
     inkscape:window-x="0"
     inkscape:window-height="1011"
     inkscape:window-width="1920"
     units="px"
     showgrid="false"
     inkscape:current-layer="layer3"
     inkscape:document-units="mm"
     inkscape:cy="59.043415"
     inkscape:cx="40.747027"
     inkscape:zoom="5.6568544"
     inkscape:pageshadow="2"
     inkscape:pageopacity="0.0"
     borderopacity="1.0"
     bordercolor="#666666"
     pagecolor="#ffffff"
     id="base"
     showguides="true"
     inkscape:guide-bbox="true"
     inkscape:lockguides="false"
     inkscape:measure-start="105.598,354.321"
     inkscape:measure-end="200.5,366.5"
     inkscape:showpageshadow="2"
     inkscape:pagecheckerboard="0"
     inkscape:deskcolor="#d1d1d1" />
  <defs
     id="defs2">
    <linearGradient
       inkscape:collect="always"
       xlink:href="#linearGradient1478"
       id="linearGradient5726"
       gradientUnits="userSpaceOnUse"
       gradientTransform="matrix(2.9693823,0,0,2.9693823,192.65561,-2631.777)"
       x1="-37.305737"
       y1="910.59918"
       x2="-37.305737"
       y2="930.85645" />
    <linearGradient
       inkscape:collect="always"
       id="linearGradient1478">
      <stop
         style="stop-color:#000000;stop-opacity:0.25098041"
         offset="0"
         id="stop1474" />
      <stop
         style="stop-color:#000000;stop-opacity:0;"
         offset="1"
         id="stop1476" />
    </linearGradient>
  </defs>
  <metadata
     id="metadata5">
    <rdf:RDF>
      <cc:Work
         rdf:about="">
        <dc:format>image/svg+xml</dc:format>
        <dc:type
           rdf:resource="http://purl.org/dc/dcmitype/StillImage" />
      </cc:Work>
    </rdf:RDF>
  </metadata>
  <g
     style="display:inline"
     transform="translate(0,-106.49999)"
     id="layer1"
     inkscape:groupmode="layer"
     inkscape:label="Fondo" />
  <g
     style="display:inline"
     inkscape:label="Letras"
     id="layer2"
     inkscape:groupmode="layer"
     transform="translate(0,58.208333)" />
  <g
     style="display:inline"
     inkscape:label="Plato"
     id="layer3"
     inkscape:groupmode="layer"
     transform="translate(0,58.208333)">
    <g
       transform="matrix(0.37536055,0,0,0.37536055,-3.4633121,-73.236625)"
       style="display:inline"
       id="g893">
      <path
         style="color:#000000;font-style:normal;font-variant:normal;font-weight:normal;font-stretch:normal;font-size:medium;line-height:normal;font-family:sans-serif;font-variant-ligatures:normal;font-variant-position:normal;font-variant-caps:normal;font-variant-numeric:normal;font-variant-alternates:normal;font-feature-settings:normal;text-indent:0;text-align:start;text-decoration:none;text-decoration-line:none;text-decoration-style:solid;text-decoration-color:#000000;letter-spacing:normal;word-spacing:normal;text-transform:none;writing-mode:lr-tb;direction:ltr;text-orientation:mixed;dominant-baseline:auto;baseline-shift:baseline;text-anchor:start;white-space:normal;shape-padding:0;clip-rule:nonzero;display:inline;overflow:visible;visibility:visible;opacity:1;isolation:auto;mix-blend-mode:normal;color-interpolation:sRGB;color-interpolation-filters:linearRGB;solid-color:#000000;solid-opacity:1;vector-effect:none;fill:#000000;fill-opacity:1;fill-rule:nonzero;stroke:none;stroke-width:2.5;stroke-linecap:round;stroke-linejoin:miter;stroke-miterlimit:4;stroke-dasharray:none;stroke-dashoffset:0;stroke-opacity:1;color-rendering:auto;image-rendering:auto;shape-rendering:auto;text-rendering:auto;enable-background:accumulate"
         d="M 59.015625,75.800781 C 57.572688,75.695504 56.129206,75.72061 54.705078,75.875 a 1.2504473,1.2504473 0 1 0 0.269531,2.486328 c 10.208956,-1.106757 21.550136,4.85717 23.66211,19.492188 a 1.250144,1.250144 0 1 0 2.474609,-0.357422 C 79.114604,83.659705 69.116183,76.537722 59.015625,75.800781 Z"
         id="path985"
         inkscape:connector-curvature="0" />
      <path
         style="color:#000000;font-style:normal;font-variant:normal;font-weight:normal;font-stretch:normal;font-size:medium;line-height:normal;font-family:sans-serif;font-variant-ligatures:normal;font-variant-position:normal;font-variant-caps:normal;font-variant-numeric:normal;font-variant-alternates:normal;font-feature-settings:normal;text-indent:0;text-align:start;text-decoration:none;text-decoration-line:none;text-decoration-style:solid;text-decoration-color:#000000;letter-spacing:normal;word-spacing:normal;text-transform:none;writing-mode:lr-tb;direction:ltr;text-orientation:mixed;dominant-baseline:auto;baseline-shift:baseline;text-anchor:start;white-space:normal;shape-padding:0;clip-rule:nonzero;display:inline;overflow:visible;visibility:visible;opacity:1;isolation:auto;mix-blend-mode:normal;color-interpolation:sRGB;color-interpolation-filters:linearRGB;solid-color:#000000;solid-opacity:1;vector-effect:none;fill:#000000;fill-opacity:1;fill-rule:nonzero;stroke:none;stroke-width:2.5;stroke-linecap:round;stroke-linejoin:miter;stroke-miterlimit:4;stroke-dasharray:none;stroke-dashoffset:0;stroke-opacity:1;color-rendering:auto;image-rendering:auto;shape-rendering:auto;text-rendering:auto;enable-background:accumulate"
         d="m 59.802734,81.429688 c -1.098532,-0.08606 -2.215521,-0.05694 -3.339843,0.09961 a 1.2501523,1.2501523 0 1 0 0.34375,2.476562 c 7.567295,-1.053654 14.906881,4.538365 15.878906,13.767579 A 1.250125,1.250125 0 1 0 75.171875,97.51172 C 74.208873,88.36818 67.492461,82.032093 59.802734,81.429688 Z"
         id="path987"
         inkscape:connector-curvature="0" />
      <path
         style="color:#000000;font-style:normal;font-variant:normal;font-weight:normal;font-stretch:normal;font-size:medium;line-height:normal;font-family:sans-serif;font-variant-ligatures:normal;font-variant-position:normal;font-variant-caps:normal;font-variant-numeric:normal;font-variant-alternates:normal;font-feature-settings:normal;text-indent:0;text-align:start;text-decoration:none;text-decoration-line:none;text-decoration-style:solid;text-decoration-color:#000000;letter-spacing:normal;word-spacing:normal;text-transform:none;writing-mode:lr-tb;direction:ltr;text-orientation:mixed;dominant-baseline:auto;baseline-shift:baseline;text-anchor:start;white-space:normal;shape-padding:0;clip-rule:nonzero;display:inline;overflow:visible;visibility:visible;opacity:1;isolation:auto;mix-blend-mode:normal;color-interpolation:sRGB;color-interpolation-filters:linearRGB;solid-color:#000000;solid-opacity:1;vector-effect:none;fill:#000000;fill-opacity:1;fill-rule:nonzero;stroke:none;stroke-width:2.5;stroke-linecap:round;stroke-linejoin:miter;stroke-miterlimit:4;stroke-dasharray:none;stroke-dashoffset:0;stroke-opacity:1;color-rendering:auto;image-rendering:auto;shape-rendering:auto;text-rendering:auto;enable-background:accumulate"
         d="m 57.050781,87.064453 a 1.2506322,1.2506322 0 1 0 0.212891,2.492188 c 1.95769,-0.167744 4.46603,0.398175 6.402344,1.748047 1.936313,1.349871 3.344325,3.38177 3.433593,6.451171 a 1.250125,1.250125 0 1 0 2.498047,-0.07422 c -0.111583,-3.836693 -2.027439,-6.702665 -4.501953,-8.427735 -2.474514,-1.725069 -5.462031,-2.410767 -8.044922,-2.189453 z"
         id="path989"
         inkscape:connector-curvature="0" />
      <path
         style="color:#000000;font-style:normal;font-variant:normal;font-weight:normal;font-stretch:normal;font-size:medium;line-height:normal;font-family:sans-serif;font-variant-ligatures:normal;font-variant-position:normal;font-variant-caps:normal;font-variant-numeric:normal;font-variant-alternates:normal;font-feature-settings:normal;text-indent:0;text-align:start;text-decoration:none;text-decoration-line:none;text-decoration-style:solid;text-decoration-color:#000000;letter-spacing:normal;word-spacing:normal;text-transform:none;writing-mode:lr-tb;direction:ltr;text-orientation:mixed;dominant-baseline:auto;baseline-shift:baseline;text-anchor:start;white-space:normal;shape-padding:0;clip-rule:nonzero;display:inline;overflow:visible;visibility:visible;opacity:1;isolation:auto;mix-blend-mode:normal;color-interpolation:sRGB;color-interpolation-filters:linearRGB;solid-color:#000000;solid-opacity:1;vector-effect:none;fill:#000000;fill-opacity:1;fill-rule:nonzero;stroke:none;stroke-width:2.5;stroke-linecap:round;stroke-linejoin:miter;stroke-miterlimit:4;stroke-dasharray:none;stroke-dashoffset:0;stroke-opacity:1;color-rendering:auto;image-rendering:auto;shape-rendering:auto;text-rendering:auto;enable-background:accumulate"
         d="m 57.226562,92.183594 a 1.250125,1.250125 0 1 0 0.169922,2.49414 c 1.735385,-0.117442 3.672372,1.162855 4.00586,3.21875 a 1.2505038,1.2505038 0 1 0 2.46875,-0.40039 c -0.546232,-3.367429 -3.602982,-5.518338 -6.644532,-5.3125 z"
         id="path991"
         inkscape:connector-curvature="0" />
      <path
         style="color:#000000;font-style:normal;font-variant:normal;font-weight:normal;font-stretch:normal;font-size:medium;line-height:normal;font-family:sans-serif;font-variant-ligatures:normal;font-variant-position:normal;font-variant-caps:normal;font-variant-numeric:normal;font-variant-alternates:normal;font-feature-settings:normal;text-indent:0;text-align:start;text-decoration:none;text-decoration-line:none;text-decoration-style:solid;text-decoration-color:#000000;letter-spacing:normal;word-spacing:normal;text-transform:none;writing-mode:lr-tb;direction:ltr;text-orientation:mixed;dominant-baseline:auto;baseline-shift:baseline;text-anchor:start;white-space:normal;shape-padding:0;clip-rule:nonzero;display:inline;overflow:visible;visibility:visible;opacity:1;isolation:auto;mix-blend-mode:normal;color-interpolation:sRGB;color-interpolation-filters:linearRGB;solid-color:#000000;solid-opacity:1;vector-effect:none;fill:#000000;fill-opacity:1;fill-rule:nonzero;stroke:none;stroke-width:2.5;stroke-linecap:round;stroke-linejoin:miter;stroke-miterlimit:4;stroke-dasharray:none;stroke-dashoffset:0;stroke-opacity:1;color-rendering:auto;image-rendering:auto;shape-rendering:auto;text-rendering:auto;enable-background:accumulate"
         d="m 52.183594,57.148438 c -3.558933,0.06587 -7.268927,1.430853 -10.158203,4.628906 a 1.2507551,1.2507551 0 1 0 1.855468,1.677734 c 2.421803,-2.680621 5.381348,-3.753654 8.34961,-3.808594 2.968261,-0.05494 5.929794,0.965404 8.076172,2.5 l 0.0039,0.002 0.0039,0.0039 c 4.221898,2.974903 5.952681,7.548751 5.271485,12.042968 a 1.2504652,1.2504652 0 1 0 2.472656,0.375 C 68.87379,69.191986 66.712397,63.606987 61.759754,60.113321 59.165154,58.25826 55.742515,57.082605 52.183582,57.148478 Z"
         id="path993"
         inkscape:connector-curvature="0" />
      <path
         style="color:#000000;font-style:normal;font-variant:normal;font-weight:normal;font-stretch:normal;font-size:medium;line-height:normal;font-family:sans-serif;font-variant-ligatures:normal;font-variant-position:normal;font-variant-caps:normal;font-variant-numeric:normal;font-variant-alternates:normal;font-feature-settings:normal;text-indent:0;text-align:start;text-decoration:none;text-decoration-line:none;text-decoration-style:solid;text-decoration-color:#000000;letter-spacing:normal;word-spacing:normal;text-transform:none;writing-mode:lr-tb;direction:ltr;text-orientation:mixed;dominant-baseline:auto;baseline-shift:baseline;text-anchor:start;white-space:normal;shape-padding:0;clip-rule:nonzero;display:inline;overflow:visible;visibility:visible;opacity:1;isolation:auto;mix-blend-mode:normal;color-interpolation:sRGB;color-interpolation-filters:linearRGB;solid-color:#000000;solid-opacity:1;vector-effect:none;fill:#000000;fill-opacity:1;fill-rule:nonzero;stroke:none;stroke-width:2.5;stroke-linecap:round;stroke-linejoin:miter;stroke-miterlimit:4;stroke-dasharray:none;stroke-dashoffset:0;stroke-opacity:1;color-rendering:auto;image-rendering:auto;shape-rendering:auto;text-rendering:auto;enable-background:accumulate"
         d="m 52.052734,62.085938 c -1.906938,0.141376 -3.769632,0.886609 -5.324218,2.373046 a 1.2501716,1.2501716 0 1 0 1.728515,1.806641 c 4.520172,-4.32202 12.956412,0.01903 12.279297,6.96875 a 1.250125,1.250125 0 1 0 2.488281,0.242187 C 63.886878,66.679224 57.773548,61.661808 52.052734,62.085938 Z"
         id="path995"
         inkscape:connector-curvature="0" />
      <path
         style="color:#000000;font-style:normal;font-variant:normal;font-weight:normal;font-stretch:normal;font-size:medium;line-height:normal;font-family:sans-serif;font-variant-ligatures:normal;font-variant-position:normal;font-variant-caps:normal;font-variant-numeric:normal;font-variant-alternates:normal;font-feature-settings:normal;text-indent:0;text-align:start;text-decoration:none;text-decoration-line:none;text-decoration-style:solid;text-decoration-color:#000000;letter-spacing:normal;word-spacing:normal;text-transform:none;writing-mode:lr-tb;direction:ltr;text-orientation:mixed;dominant-baseline:auto;baseline-shift:baseline;text-anchor:start;white-space:normal;shape-padding:0;clip-rule:nonzero;display:inline;overflow:visible;visibility:visible;opacity:1;isolation:auto;mix-blend-mode:normal;color-interpolation:sRGB;color-interpolation-filters:linearRGB;solid-color:#000000;solid-opacity:1;vector-effect:none;fill:#000000;fill-opacity:1;fill-rule:nonzero;stroke:none;stroke-width:2.5;stroke-linecap:round;stroke-linejoin:miter;stroke-miterlimit:4;stroke-dasharray:none;stroke-dashoffset:0;stroke-opacity:1;color-rendering:auto;image-rendering:auto;shape-rendering:auto;text-rendering:auto;enable-background:accumulate"
         d="m 53.271484,66.779297 c -0.982574,-0.06203 -2.006896,0.16802 -2.96875,0.779297 a 1.250125,1.250125 0 1 0 1.341797,2.109375 c 2.0886,-1.327346 4.475878,0.853251 4.132813,2.722656 a 1.250125,1.250125 0 1 0 2.458984,0.451172 c 0.561535,-3.059872 -2.017121,-5.876424 -4.964844,-6.0625 z"
         id="path997"
         inkscape:connector-curvature="0" />
      <path
         style="color:#000000;font-style:normal;font-variant:normal;font-weight:normal;font-stretch:normal;font-size:medium;line-height:normal;font-family:sans-serif;font-variant-ligatures:normal;font-variant-position:normal;font-variant-caps:normal;font-variant-numeric:normal;font-variant-alternates:normal;font-feature-settings:normal;text-indent:0;text-align:start;text-decoration:none;text-decoration-line:none;text-decoration-style:solid;text-decoration-color:#000000;letter-spacing:normal;word-spacing:normal;text-transform:none;writing-mode:lr-tb;direction:ltr;text-orientation:mixed;dominant-baseline:auto;baseline-shift:baseline;text-anchor:start;white-space:normal;shape-padding:0;clip-rule:nonzero;display:inline;overflow:visible;visibility:visible;opacity:1;isolation:auto;mix-blend-mode:normal;color-interpolation:sRGB;color-interpolation-filters:linearRGB;solid-color:#000000;solid-opacity:1;vector-effect:none;fill:#000000;fill-opacity:1;fill-rule:nonzero;stroke:none;stroke-width:2.5;stroke-linecap:round;stroke-linejoin:miter;stroke-miterlimit:4;stroke-dasharray:none;stroke-dashoffset:0;stroke-opacity:1;color-rendering:auto;image-rendering:auto;shape-rendering:auto;text-rendering:auto;enable-background:accumulate"
         d="m 30.167969,64.410156 c -1.935936,0.243319 -3.90975,0.763224 -5.841797,1.644532 v 0.002 c -4.925003,2.250355 -8.137123,5.63035 -9.707031,9.482421 -1.569909,3.852072 -1.496836,8.124523 -0.105469,12.134766 A 1.250125,1.250125 0 1 0 16.875,86.853516 c -1.22107,-3.519407 -1.257946,-7.140712 0.05859,-10.371094 1.31654,-3.230382 3.986126,-6.121079 8.43164,-8.152344 6.704861,-3.058437 14.518668,-0.926405 17.810547,1.203125 l 0.01563,0.01172 0.01563,0.0078 c 5.293281,3.208124 7.763019,8.566864 8.484375,13.970704 0.721356,5.403839 -0.433938,10.82212 -2.072265,13.519531 a 1.250125,1.250125 0 1 0 2.136718,1.296875 c 2.1024,-3.461478 3.207019,-9.206273 2.414063,-15.146485 -0.792253,-5.934943 -3.608064,-12.093257 -9.654297,-15.765625 -3.080633,-1.98747 -8.548668,-3.746425 -14.347656,-3.017578 z"
         id="path1003"
         inkscape:connector-curvature="0" />
      <path
         style="color:#000000;font-style:normal;font-variant:normal;font-weight:normal;font-stretch:normal;font-size:medium;line-height:normal;font-family:sans-serif;font-variant-ligatures:normal;font-variant-position:normal;font-variant-caps:normal;font-variant-numeric:normal;font-variant-alternates:normal;font-feature-settings:normal;text-indent:0;text-align:start;text-decoration:none;text-decoration-line:none;text-decoration-style:solid;text-decoration-color:#000000;letter-spacing:normal;word-spacing:normal;text-transform:none;writing-mode:lr-tb;direction:ltr;text-orientation:mixed;dominant-baseline:auto;baseline-shift:baseline;text-anchor:start;white-space:normal;shape-padding:0;clip-rule:nonzero;display:inline;overflow:visible;visibility:visible;opacity:1;isolation:auto;mix-blend-mode:normal;color-interpolation:sRGB;color-interpolation-filters:linearRGB;solid-color:#000000;solid-opacity:1;vector-effect:none;fill:#000000;fill-opacity:1;fill-rule:nonzero;stroke:none;stroke-width:2.5;stroke-linecap:round;stroke-linejoin:miter;stroke-miterlimit:4;stroke-dasharray:none;stroke-dashoffset:0;stroke-opacity:1;color-rendering:auto;image-rendering:auto;shape-rendering:auto;text-rendering:auto;enable-background:accumulate"
         d="m 32.634766,69.134766 c -1.463527,0.04424 -2.913251,0.260414 -4.291016,0.638672 -2.755529,0.756514 -5.260846,2.17731 -7.003906,4.277343 -1.74306,2.100033 -2.665906,4.907508 -2.234375,8.111328 a 1.250125,1.250125 0 1 0 2.476562,-0.333984 c -0.346071,-2.569347 0.34229,-4.567994 1.681641,-6.181641 1.339351,-1.613646 3.387557,-2.814487 5.742187,-3.460937 4.70926,-1.292901 10.487697,-0.28995 13.751953,3.244141 l 0.0098,0.01172 0.01172,0.01172 c 2.872549,2.951378 4.127344,6.99448 4.171875,11.021484 0.04453,4.027005 -1.15815,7.999979 -2.976563,10.580079 a 1.250125,1.250125 0 1 0 2.042969,1.439453 c 2.202444,-3.124992 3.483669,-7.52041 3.433594,-12.048829 -0.05002,-4.523113 -1.467424,-9.216036 -4.871094,-12.720703 -3.054917,-3.29866 -7.560315,-4.722389 -11.945312,-4.589843 z"
         id="path1005"
         inkscape:connector-curvature="0" />
      <path
         style="color:#000000;font-style:normal;font-variant:normal;font-weight:normal;font-stretch:normal;font-size:medium;line-height:normal;font-family:sans-serif;font-variant-ligatures:normal;font-variant-position:normal;font-variant-caps:normal;font-variant-numeric:normal;font-variant-alternates:normal;font-feature-settings:normal;text-indent:0;text-align:start;text-decoration:none;text-decoration-line:none;text-decoration-style:solid;text-decoration-color:#000000;letter-spacing:normal;word-spacing:normal;text-transform:none;writing-mode:lr-tb;direction:ltr;text-orientation:mixed;dominant-baseline:auto;baseline-shift:baseline;text-anchor:start;white-space:normal;shape-padding:0;clip-rule:nonzero;display:inline;overflow:visible;visibility:visible;opacity:1;isolation:auto;mix-blend-mode:normal;color-interpolation:sRGB;color-interpolation-filters:linearRGB;solid-color:#000000;solid-opacity:1;vector-effect:none;fill:#000000;fill-opacity:1;fill-rule:nonzero;stroke:none;stroke-width:2.5;stroke-linecap:round;stroke-linejoin:miter;stroke-miterlimit:4;stroke-dasharray:none;stroke-dashoffset:0;stroke-opacity:1;color-rendering:auto;image-rendering:auto;shape-rendering:auto;text-rendering:auto;enable-background:accumulate"
         d="m 32.492188,74.335938 c -3.159999,0.09515 -6.172258,1.179166 -7.371094,3.599609 a 1.250125,1.250125 0 1 0 2.240234,1.109375 c 0.490361,-0.990035 2.650111,-2.133943 5.207031,-2.210938 2.55692,-0.07699 5.292056,0.778615 6.916016,2.794922 l 0.0098,0.01367 0.0098,0.01172 c 2.129411,2.505179 2.734426,5.739977 2.357422,8.951172 -0.377004,3.211194 -1.778188,6.343557 -3.441406,8.330078 a 1.2506134,1.2506134 0 1 0 1.917969,1.605469 c 2.034709,-2.430307 3.57101,-5.924586 4.007743,-9.644531 C 44.78121,85.186981 44.078357,81.196322 41.429688,78.0625 l -0.0039,-0.0039 c -2.249912,-2.789932 -5.775273,-3.81776 -8.933593,-3.722656 z"
         id="path1007"
         inkscape:connector-curvature="0" />
      <path
         style="color:#000000;font-style:normal;font-variant:normal;font-weight:normal;font-stretch:normal;font-size:medium;line-height:normal;font-family:sans-serif;font-variant-ligatures:normal;font-variant-position:normal;font-variant-caps:normal;font-variant-numeric:normal;font-variant-alternates:normal;font-feature-settings:normal;text-indent:0;text-align:start;text-decoration:none;text-decoration-line:none;text-decoration-style:solid;text-decoration-color:#000000;letter-spacing:normal;word-spacing:normal;text-transform:none;writing-mode:lr-tb;direction:ltr;text-orientation:mixed;dominant-baseline:auto;baseline-shift:baseline;text-anchor:start;white-space:normal;shape-padding:0;clip-rule:nonzero;display:inline;overflow:visible;visibility:visible;opacity:1;isolation:auto;mix-blend-mode:normal;color-interpolation:sRGB;color-interpolation-filters:linearRGB;solid-color:#000000;solid-opacity:1;vector-effect:none;fill:#000000;fill-opacity:1;fill-rule:nonzero;stroke:none;stroke-width:2.5;stroke-linecap:round;stroke-linejoin:miter;stroke-miterlimit:4;stroke-dasharray:none;stroke-dashoffset:0;stroke-opacity:1;color-rendering:auto;image-rendering:auto;shape-rendering:auto;text-rendering:auto;enable-background:accumulate"
         d="m 35.720703,79.15625 c -6.021524,-0.748592 -11.523849,1.756948 -15.183594,5.503906 -3.659744,3.746959 -5.603118,8.835109 -4.164062,13.382813 a 1.250125,1.250125 0 1 0 2.382812,-0.75586 c -1.072625,-3.389712 0.396071,-7.630973 3.570313,-10.880859 3.174242,-3.249886 7.930002,-5.408561 13.085937,-4.767578 a 1.2507647,1.2507647 0 1 0 0.308594,-2.482422 z"
         id="path1009"
         inkscape:connector-curvature="0" />
      <path
         style="color:#000000;font-style:normal;font-variant:normal;font-weight:normal;font-stretch:normal;font-size:medium;line-height:normal;font-family:sans-serif;font-variant-ligatures:normal;font-variant-position:normal;font-variant-caps:normal;font-variant-numeric:normal;font-variant-alternates:normal;font-feature-settings:normal;text-indent:0;text-align:start;text-decoration:none;text-decoration-line:none;text-decoration-style:solid;text-decoration-color:#000000;letter-spacing:normal;word-spacing:normal;text-transform:none;writing-mode:lr-tb;direction:ltr;text-orientation:mixed;dominant-baseline:auto;baseline-shift:baseline;text-anchor:start;white-space:normal;shape-padding:0;clip-rule:nonzero;display:inline;overflow:visible;visibility:visible;opacity:1;isolation:auto;mix-blend-mode:normal;color-interpolation:sRGB;color-interpolation-filters:linearRGB;solid-color:#000000;solid-opacity:1;vector-effect:none;fill:#000000;fill-opacity:1;fill-rule:nonzero;stroke:none;stroke-width:2.5;stroke-linecap:round;stroke-linejoin:miter;stroke-miterlimit:4;stroke-dasharray:none;stroke-dashoffset:0;stroke-opacity:1;color-rendering:auto;image-rendering:auto;shape-rendering:auto;text-rendering:auto;enable-background:accumulate"
         d="m 35.888672,83.785156 c -3.00809,-0.131283 -6.312524,0.761486 -9.076172,2.503906 -3.684864,2.323228 -6.400701,6.453941 -5.373047,11.642579 a 1.2504337,1.2504337 0 1 0 2.453125,-0.486329 c -0.823509,-4.157908 1.181471,-7.105864 4.253906,-9.042968 3.072436,-1.937105 7.221762,-2.565375 9.888672,-1.748047 a 1.250153,1.250153 0 1 0 0.732422,-2.390625 c -0.906157,-0.27771 -1.876209,-0.434755 -2.878906,-0.478516 z"
         id="path1011"
         inkscape:connector-curvature="0" />
      <path
         style="color:#000000;font-style:normal;font-variant:normal;font-weight:normal;font-stretch:normal;font-size:medium;line-height:normal;font-family:sans-serif;font-variant-ligatures:normal;font-variant-position:normal;font-variant-caps:normal;font-variant-numeric:normal;font-variant-alternates:normal;font-feature-settings:normal;text-indent:0;text-align:start;text-decoration:none;text-decoration-line:none;text-decoration-style:solid;text-decoration-color:#000000;letter-spacing:normal;word-spacing:normal;text-transform:none;writing-mode:lr-tb;direction:ltr;text-orientation:mixed;dominant-baseline:auto;baseline-shift:baseline;text-anchor:start;white-space:normal;shape-padding:0;clip-rule:nonzero;display:inline;overflow:visible;visibility:visible;opacity:1;isolation:auto;mix-blend-mode:normal;color-interpolation:sRGB;color-interpolation-filters:linearRGB;solid-color:#000000;solid-opacity:1;vector-effect:none;fill:#000000;fill-opacity:1;fill-rule:nonzero;stroke:none;stroke-width:2.5;stroke-linecap:round;stroke-linejoin:miter;stroke-miterlimit:4;stroke-dasharray:none;stroke-dashoffset:0;stroke-opacity:1;color-rendering:auto;image-rendering:auto;shape-rendering:auto;text-rendering:auto;enable-background:accumulate"
         d="m 36.318359,88.90625 c -2.419777,-0.219507 -4.703848,0.426248 -6.449218,1.658203 -2.327161,1.642607 -3.723818,4.45935 -3.003907,7.417969 a 1.2503607,1.2503607 0 1 0 2.429688,-0.591797 c -0.466251,-1.916152 0.36159,-3.61767 2.015625,-4.785156 1.654035,-1.167487 4.109377,-1.666861 6.662109,-0.810547 a 1.2503987,1.2503987 0 1 0 0.794922,-2.371094 C 37.945431,89.148039 37.124952,88.979419 36.318359,88.90625 Z"
         id="path1013"
         inkscape:connector-curvature="0" />
      <path
         style="color:#000000;font-style:normal;font-variant:normal;font-weight:normal;font-stretch:normal;font-size:medium;line-height:normal;font-family:sans-serif;font-variant-ligatures:normal;font-variant-position:normal;font-variant-caps:normal;font-variant-numeric:normal;font-variant-alternates:normal;font-feature-settings:normal;text-indent:0;text-align:start;text-decoration:none;text-decoration-line:none;text-decoration-style:solid;text-decoration-color:#000000;letter-spacing:normal;word-spacing:normal;text-transform:none;writing-mode:lr-tb;direction:ltr;text-orientation:mixed;dominant-baseline:auto;baseline-shift:baseline;text-anchor:start;white-space:normal;shape-padding:0;clip-rule:nonzero;display:inline;overflow:visible;visibility:visible;opacity:1;isolation:auto;mix-blend-mode:normal;color-interpolation:sRGB;color-interpolation-filters:linearRGB;solid-color:#000000;solid-opacity:1;vector-effect:none;fill:#000000;fill-opacity:1;fill-rule:nonzero;stroke:none;stroke-width:2.5;stroke-linecap:round;stroke-linejoin:miter;stroke-miterlimit:4;stroke-dasharray:none;stroke-dashoffset:0;stroke-opacity:1;color-rendering:auto;image-rendering:auto;shape-rendering:auto;text-rendering:auto;enable-background:accumulate"
         d="m 34.392578,93.482422 c -0.839334,0.261856 -1.502112,0.758534 -1.90625,1.367187 -0.404138,0.608654 -0.590412,1.257915 -0.646484,1.855469 -0.05607,0.597555 -0.06609,1.12274 0.333984,1.751953 a 1.250125,1.250125 0 1 0 2.109375,-1.341797 c 0.15289,0.240456 0.02378,0.04758 0.04492,-0.177734 0.02114,-0.225319 0.107278,-0.504839 0.240234,-0.705078 0.265913,-0.400478 0.549392,-0.768033 2.0625,-0.310547 a 1.250125,1.250125 0 1 0 0.722657,-2.392578 c -1.106739,-0.334621 -2.121604,-0.308731 -2.960938,-0.04687 z"
         id="path1023"
         inkscape:connector-curvature="0" />
    </g>
    <g
       id="g8292"
       transform="translate(-6.3938517,-17.320978)" />
  </g>
</svg>
