<?xml version="1.0" encoding="UTF-8" standalone="no"?>
<!-- Created with Inkscape (http://www.inkscape.org/) -->

<svg
   enable-background="new"
   width="64"
   height="64"
   viewBox="0 0 64 64"
   version="1.1"
   id="SVGRoot"
   inkscape:version="1.2.2 (b0a8486, 2022-12-01)"
   sodipodi:docname="UNCmorfi-icon-mono.svg"
   inkscape:export-filename="/home/starlord/UNCmorfi-icon2.png"
   inkscape:export-xdpi="910.22223"
   inkscape:export-ydpi="910.22223"
   xmlns:inkscape="http://www.inkscape.org/namespaces/inkscape"
   xmlns:sodipodi="http://sodipodi.sourceforge.net/DTD/sodipodi-0.dtd"
   xmlns="http://www.w3.org/2000/svg"
   xmlns:svg="http://www.w3.org/2000/svg"
   xmlns:rdf="http://www.w3.org/1999/02/22-rdf-syntax-ns#"
   xmlns:cc="http://creativecommons.org/ns#"
   xmlns:dc="http://purl.org/dc/elements/1.1/">
  <sodipodi:namedview
     inkscape:measure-end="62.579,13.4174"
     inkscape:measure-start="65.4427,15.0614"
     id="base"
     pagecolor="#ffffff"
     bordercolor="#666666"
     borderopacity="1.0"
     inkscape:pageopacity="0.0"
     inkscape:pageshadow="2"
     inkscape:zoom="2.8284272"
     inkscape:cx="51.618795"
     inkscape:cy="21.566757"
     inkscape:document-units="px"
     inkscape:current-layer="g1708"
     showgrid="false"
     inkscape:window-width="1920"
     inkscape:window-height="1011"
     inkscape:window-x="0"
     inkscape:window-y="32"
     inkscape:window-maximized="1"
     inkscape:grid-bbox="true"
     showguides="false"
     inkscape:guide-bbox="true"
     showborder="true"
     inkscape:showpageshadow="false"
     inkscape:pagecheckerboard="0"
     inkscape:deskcolor="#d1d1d1">
    <inkscape:grid
       type="xygrid"
       id="grid4760"
       originx="0"
       originy="0" />
    <sodipodi:guide
       position="32.275139,76.3208"
       orientation="1,0"
       id="guide2436"
       inkscape:locked="false" />
    <sodipodi:guide
       position="24.909443,30.92133"
       orientation="0,-1"
       id="guide2438"
       inkscape:locked="false" />
  </sodipodi:namedview>
  <defs
     id="defs5158">
    <filter
       id="filter924"
       style="color-interpolation-filters:sRGB"
       inkscape:collect="always"
       x="0"
       y="0"
       width="1"
       height="1.0035675">
      <feBlend
         id="feBlend926"
         in2="BackgroundImage"
         mode="darken"
         inkscape:collect="always" />
    </filter>
  </defs>
  <metadata
     id="metadata5161">
    <rdf:RDF>
      <cc:Work
         rdf:about="">
        <dc:format>image/svg+xml</dc:format>
        <dc:type
           rdf:resource="http://purl.org/dc/dcmitype/StillImage" />
      </cc:Work>
    </rdf:RDF>
  </metadata>
  <g
     transform="translate(0,-148)"
     style="display:inline;filter:url(#filter924)"
     inkscape:label="back"
     inkscape:groupmode="layer"
     id="layer1" />
  <g
     style="display:inline"
     inkscape:label="front"
     id="g1027"
     inkscape:groupmode="layer">
    <g
       id="g1708"
       transform="translate(-27.036866,-14.142239)">
      <path
         id="path853-5-6"
         style="fill:#000000;fill-opacity:1;stroke:none;stroke-width:0.129112;stroke-miterlimit:4;stroke-dasharray:none;stroke-opacity:1"
         d="m 42.131183,24.952421 c -0.323146,-0.04376 -0.666097,0.01366 -0.949356,0.159604 -0.417837,0.211464 -0.665485,0.584436 -0.742975,1.103452 -0.02691,0.177457 -0.03644,0.343319 -0.01926,0.511826 0.04893,0.360477 0.143651,0.536776 0.564109,0.855796 0.451073,0.371577 2.489968,1.592252 6.0346,3.71212 1.212647,0.725363 15.205058,9.131721 16.741682,10.049412 1.106752,0.672661 2.201321,1.419167 3.249822,2.162879 0.0362,0.03026 0.05886,0.05807 0.07155,0.08254 0.235337,0.370871 0.271046,0.643985 0.159601,1.067683 -0.08063,0.311025 -0.261452,0.640953 -0.459542,0.811767 -0.06578,0.05267 -0.135805,0.105692 -0.211887,0.154098 -0.41369,0.248904 -0.825894,0.333594 -1.422656,0.104564 -0.314537,-0.132677 -1.119275,-0.588298 -2.358255,-1.315341 -0.197909,-0.116595 -0.421187,-0.249222 -0.632904,-0.374238 l 0.0028,-0.0028 C 54.157378,39.245371 39.690419,30.641558 39.008005,30.422842 c -0.159868,-0.05001 -0.282129,-0.06953 -0.385246,-0.07155 -0.103122,-0.0019 -0.186669,0.01435 -0.275175,0.03577 -0.523246,0.115683 -0.879881,0.426232 -1.062179,0.941101 -0.02452,0.07035 -0.0416,0.141492 -0.0633,0.217388 -0.189976,0.782798 0.04975,1.336246 1.180503,2.014285 0.258477,0.162 0.836389,0.506575 1.714345,1.029156 1.295335,0.771856 3.170362,1.889767 4.752282,2.834309 5.346843,3.204653 10.788329,6.427222 16.097771,9.625642 1.265692,0.760877 2.112445,1.287986 2.394027,1.491452 0.261923,0.198147 0.42749,0.39578 0.503572,0.575117 0.167654,0.358939 0.193154,0.765019 0.08806,1.13097 -0.133311,0.465723 -0.32592,0.687067 -0.817273,0.927343 -0.174493,0.08628 -0.332214,0.146653 -0.489813,0.167856 -0.185354,0.04055 -0.338474,0.0249 -0.660421,-0.09906 -0.304293,-0.129971 -1.418935,-0.772798 -3.090221,-1.75562 l -0.0028,0.0055 c -7.394405,-4.375143 -12.901909,-7.6832 -19.70533,-11.755497 -0.211801,-0.126153 -0.404013,-0.241928 -0.57787,-0.346722 -1.222271,-0.729895 -2.188789,-1.275008 -2.559133,-1.433665 -0.326061,-0.134423 -0.584869,-0.176791 -0.81452,-0.151347 -0.229649,0.02544 -0.429698,0.118469 -0.632904,0.253164 -0.628406,0.413178 -0.895061,1.376548 -0.511826,2.058311 0.02607,0.04768 0.05078,0.08105 0.07981,0.129337 0.106628,0.183629 0.562034,0.513319 1.758372,1.243794 8.062744,4.806455 13.800011,8.251563 21.326105,12.735125 l -0.0028,0.0055 c 0.436816,0.260857 0.837474,0.49748 1.125468,0.671428 1.276852,0.77001 1.775687,1.127487 2.072072,1.480444 0.08436,0.09512 0.142862,0.181477 0.176113,0.253162 0.332542,0.737607 0.05371,1.563281 -0.61089,1.956498 -0.314832,0.185294 -0.646511,0.256212 -1.045668,0.178864 -0.2445,-0.04942 -0.39934,-0.08883 -0.957609,-0.401756 -7.102898,-4.199975 -14.844585,-8.845813 -21.092184,-12.580983 -3.724567,-2.226864 -4.202265,-2.494661 -4.644964,-2.531615 -0.136423,-0.02293 -0.212088,0.01469 -0.338466,0.02751 -0.367004,0.05419 -0.586358,0.174507 -0.855797,0.448537 -0.28068,0.284384 -0.444521,0.688016 -0.44028,1.078688 0.0017,0.19224 0.02679,0.363386 0.09906,0.528337 0.215857,0.527102 1.877062,1.869247 5.39069,4.567915 1.579938,1.21282 15.141387,10.487406 16.736178,11.656437 l -0.0028,0.0055 c 6.014407,3.584156 10.494556,5.277078 13.91838,5.253102 0.100193,-0.0079 0.203152,-6.14e-4 0.299943,-0.0055 0.875315,-0.01449 1.980427,-0.179589 3.428687,-0.487061 0.330301,-0.07448 0.671202,-0.138467 1.023653,-0.211884 2.225232,-0.460651 3.312872,-0.557465 4.664226,-0.443034 0.07041,-0.0013 0.14575,0.01381 0.22014,0.02203 1.636952,0.165246 3.408199,0.695357 4.699997,1.395141 0.191499,0.10006 0.461721,0.252636 0.795258,0.451286 1.867772,1.106984 5.710303,3.402404 9.647656,5.759425 l 49.399536,30.131728 3.99829,-7.025234 C 144.31682,94.03378 101.83152,69.160854 100.03913,68.091695 99.325128,67.665759 98.586642,67.22592 97.815715,66.765349 83.968433,58.502017 83.94769,58.501249 83.093817,57.621264 82.987206,57.511075 82.88867,57.405635 82.777366,57.288302 82.0649,56.537777 81.632009,55.959524 80.985972,54.864006 80.134566,53.428342 79.847567,52.755407 79.329416,50.87396 c -0.04142,-0.150069 -0.08,-0.294339 -0.118324,-0.437529 C 78.742576,48.682681 78.508001,48.010778 77.78293,46.630753 77.189221,45.494371 76.804617,44.894467 76.217182,44.19545 76.074263,44.025612 75.920747,43.851786 75.752136,43.667112 74.219084,41.980663 72.305848,40.426377 69.373559,38.474549 62.481639,34.260177 54.55219,30.365014 46.966013,26.903415 45.864105,26.414846 44.776094,25.941354 43.801493,25.522034 43.018052,25.185557 42.425708,24.979317 42.131179,24.952421 Z"
         sodipodi:nodetypes="ccccccccccccccccccccccccccccccccccccscccccccccccccccccccccccccccccccccccccccccccccc" />
    </g>
  </g>
</svg>
