<?xml version="1.0" encoding="UTF-8" standalone="no"?>
<!-- Created with Inkscape (http://www.inkscape.org/) -->

<svg xmlns:dc="http://purl.org/dc/elements/1.1/" xmlns:cc="http://creativecommons.org/ns#" xmlns:rdf="http://www.w3.org/1999/02/22-rdf-syntax-ns#"
    xmlns="http://www.w3.org/2000/svg" xmlns:sodipodi="http://sodipodi.sourceforge.net/DTD/sodipodi-0.dtd"
    xmlns:inkscape="http://www.inkscape.org/namespaces/inkscape" enable-background="new" width="108"
    height="108" viewBox="0 0 108 108" version="1.1" id="SVGRoot" inkscape:version="0.92.3 (2405546, 2018-03-11)"
    sodipodi:docname="UNCmorfi-icon-v3.0-RC3.svg" inkscape:export-filename="/home/starlord/UNCmorfi-icon2.png"
    inkscape:export-xdpi="910.22223" inkscape:export-ydpi="910.22223">
  <sodipodi:namedview
     inkscape:measure-end="62.579,13.4174"
     inkscape:measure-start="65.4427,15.0614"
     id="base"
     pagecolor="#ffffff"
     bordercolor="#666666"
     borderopacity="1.0"
     inkscape:pageopacity="0.0"
     inkscape:pageshadow="2"
     inkscape:zoom="7.4670476"
     inkscape:cx="42.924892"
     inkscape:cy="45.276351"
     inkscape:document-units="px"
     inkscape:current-layer="layer1"
     showgrid="false"
     inkscape:window-width="1920"
     inkscape:window-height="2047"
     inkscape:window-x="0"
     inkscape:window-y="0"
     inkscape:window-maximized="0"
     inkscape:grid-bbox="true"
     showguides="true"
     inkscape:guide-bbox="true"
     showborder="true"
     inkscape:showpageshadow="false">
    <inkscape:grid
       type="xygrid"
       id="grid4760" />
  </sodipodi:namedview>
  <defs
     id="defs5158">
    <filter
       id="filter924"
       style="color-interpolation-filters:sRGB"
       inkscape:collect="always">
      <feBlend
         id="feBlend926"
         in2="BackgroundImage"
         mode="darken"
         inkscape:collect="always" />
    </filter>
  </defs>
  <metadata
     id="metadata5161">
    <rdf:RDF>
      <cc:Work
         rdf:about="">
        <dc:format>image/svg+xml</dc:format>
        <dc:type
           rdf:resource="http://purl.org/dc/dcmitype/StillImage" />
        <dc:title />
      </cc:Work>
    </rdf:RDF>
  </metadata>
  <g
     transform="translate(0,-148)"
     style="display:inline;filter:url(#filter924)"
     inkscape:label="back"
     inkscape:groupmode="layer"
     id="layer1">
    <path
       id="path422"
       d="M -5.05e-6,256 H 108.00001 V 148 H -5.05e-6 Z m 0,0"
       style="opacity:1;vector-effect:none;fill:#ff5252;fill-opacity:1;fill-rule:evenodd;stroke:none;stroke-width:0.75034314px;stroke-linecap:butt;stroke-linejoin:miter;stroke-miterlimit:4;stroke-dasharray:none;stroke-dashoffset:0;stroke-opacity:1"
       inkscape:connector-curvature="0" />
    <g
       style="display:inline"
       transform="translate(283.36507,156.24697)"
       id="g1541">
      <path
         style="display:inline;fill:none;stroke:#ffb74d;stroke-width:2.5;stroke-linecap:round;stroke-linejoin:miter;stroke-miterlimit:4;stroke-dasharray:none;stroke-opacity:1"
         d="m -220.71983,78.220096 c 10.80099,-1.17094 22.8378,5.33326 25.03477,20.55728"
         id="path985-2"
         inkscape:connector-curvature="0"
         sodipodi:nodetypes="cc"
         inkscape:export-filename="/home/starlord/path1203-8-2.png"
         inkscape:export-xdpi="910"
         inkscape:export-ydpi="910" />
      <path
         sodipodi:nodetypes="cc"
         inkscape:connector-curvature="0"
         id="path987-9"
         d="m -218.92434,83.870556 c 8.28094,-1.15302 16.25861,5.03496 17.2949,14.87445"
         style="display:inline;fill:none;stroke:#ffb74d;stroke-width:2.5;stroke-linecap:round;stroke-linejoin:miter;stroke-miterlimit:4;stroke-dasharray:none;stroke-opacity:1"
         inkscape:export-filename="/home/starlord/path1203-8-2.png"
         inkscape:export-xdpi="910"
         inkscape:export-ydpi="910" />
      <path
         style="display:inline;fill:none;stroke:#ffb74d;stroke-width:2.5;stroke-linecap:round;stroke-linejoin:miter;stroke-miterlimit:4;stroke-dasharray:none;stroke-opacity:1"
         d="m -218.40224,89.412636 c 4.54058,-0.38906 10.99152,2.50231 11.19237,9.4084"
         id="path989-1"
         inkscape:connector-curvature="0"
         sodipodi:nodetypes="cc"
         inkscape:export-filename="/home/starlord/path1203-8-2.png"
         inkscape:export-xdpi="910"
         inkscape:export-ydpi="910" />
      <path
         sodipodi:nodetypes="cc"
         inkscape:connector-curvature="0"
         id="path991-2"
         d="m -218.24756,94.532816 c 2.38847,-0.16164 4.88541,1.55409 5.32527,4.26575"
         style="display:inline;fill:none;stroke:#ffb74d;stroke-width:2.5;stroke-linecap:round;stroke-linejoin:miter;stroke-miterlimit:4;stroke-dasharray:none;stroke-opacity:1"
         inkscape:export-filename="/home/starlord/path1203-8-2.png"
         inkscape:export-xdpi="910"
         inkscape:export-ydpi="910" />
      <path
         sodipodi:nodetypes="ccc"
         inkscape:connector-curvature="0"
         id="path993-7"
         d="m -232.60585,63.718436 c 5.31108,-5.87867 13.33944,-4.87579 18.08042,-1.48613 4.58977,3.23412 6.53746,8.31583 5.78906,13.2534"
         style="display:inline;fill:none;stroke:#ffb74d;stroke-width:2.5;stroke-linecap:round;stroke-linejoin:miter;stroke-miterlimit:4;stroke-dasharray:none;stroke-opacity:1"
         inkscape:export-filename="/home/starlord/path1203-8-2.png"
         inkscape:export-xdpi="910"
         inkscape:export-ydpi="910" />
      <path
         style="display:inline;fill:none;stroke:#ffb74d;stroke-width:2.5;stroke-linecap:round;stroke-linejoin:miter;stroke-miterlimit:4;stroke-dasharray:none;stroke-opacity:1"
         d="m -227.9666,66.465136 c 5.36926,-5.13388 15.16775,-0.0136 14.38768,7.99278"
         id="path995-0"
         inkscape:connector-curvature="0"
         sodipodi:nodetypes="cc"
         inkscape:export-filename="/home/starlord/path1203-8-2.png"
         inkscape:export-xdpi="910"
         inkscape:export-ydpi="910" />
      <path
         sodipodi:nodetypes="cc"
         inkscape:connector-curvature="0"
         id="path997-9"
         d="m -224.58572,69.715276 c 2.968,-1.88622 6.57912,1.02879 6.03323,4.00341"
         style="display:inline;fill:none;stroke:#ffb74d;stroke-width:2.5;stroke-linecap:round;stroke-linejoin:miter;stroke-miterlimit:4;stroke-dasharray:none;stroke-opacity:1"
         inkscape:export-filename="/home/starlord/path1203-8-2.png"
         inkscape:export-xdpi="910"
         inkscape:export-ydpi="910" />
      <path
         style="display:inline;fill:none;stroke:#ffb74d;stroke-width:2.5;stroke-linecap:round;stroke-linejoin:miter;stroke-miterlimit:4;stroke-dasharray:none;stroke-opacity:1"
         d="m -259.86507,88.365466 c -2.61244,-7.52965 -0.21858,-15.78892 9.15193,-20.07054 7.21653,-3.29183 15.31024,-1.10031 19.0082,1.29192 11.35063,6.87933 10.5743,23.04832 6.83358,29.20721"
         id="path1003-0"
         inkscape:connector-curvature="0"
         sodipodi:nodetypes="cccc"
         inkscape:export-filename="/home/starlord/path1203-8-2.png"
         inkscape:export-xdpi="910"
         inkscape:export-ydpi="910" />
      <path
         sodipodi:nodetypes="ccc"
         inkscape:connector-curvature="0"
         id="path1005-6"
         d="m -255.21545,83.097006 c -1.55521,-11.54634 15.99417,-15.35717 23.3319,-7.41289 6.28488,6.45736 5.34208,17.48698 1.32122,23.19207"
         style="display:inline;fill:none;stroke:#ffb74d;stroke-width:2.5;stroke-linecap:round;stroke-linejoin:miter;stroke-miterlimit:4;stroke-dasharray:none;stroke-opacity:1"
         inkscape:export-filename="/home/starlord/path1203-8-2.png"
         inkscape:export-xdpi="910"
         inkscape:export-ydpi="910" />
      <path
         style="display:inline;fill:none;stroke:#ffb74d;stroke-width:2.5;stroke-linecap:round;stroke-linejoin:miter;stroke-miterlimit:4;stroke-dasharray:none;stroke-opacity:1"
         d="m -249.31721,79.592636 c 1.68919,-3.41047 10.34158,-4.45433 14.21529,0.35527 4.79654,5.64297 2.61979,14.47534 -1.0782,18.89217"
         id="path1007-2"
         inkscape:connector-curvature="0"
         sodipodi:nodetypes="ccc"
         inkscape:export-filename="/home/starlord/path1203-8-2.png"
         inkscape:export-xdpi="910"
         inkscape:export-ydpi="910" />
      <path
         sodipodi:nodetypes="cc"
         inkscape:connector-curvature="0"
         id="path1009-6"
         d="m -239.99337,81.499766 c -11.17746,-1.38958 -20.51254,9.33019 -18.00086,17.26761"
         style="display:inline;fill:none;stroke:#ffb74d;stroke-width:2.5;stroke-linecap:round;stroke-linejoin:miter;stroke-miterlimit:4;stroke-dasharray:none;stroke-opacity:1"
         inkscape:export-filename="/home/starlord/path1203-8-2.png"
         inkscape:export-xdpi="910"
         inkscape:export-ydpi="910" />
      <path
         style="display:inline;fill:none;stroke:#ffb74d;stroke-width:2.5;stroke-linecap:round;stroke-linejoin:miter;stroke-miterlimit:4;stroke-dasharray:none;stroke-opacity:1"
         d="m -237.15801,86.560916 c -6.29154,-1.92817 -17.58595,2.88331 -15.73479,12.22985"
         id="path1011-1"
         inkscape:connector-curvature="0"
         sodipodi:nodetypes="cc"
         inkscape:export-filename="/home/starlord/path1203-8-2.png"
         inkscape:export-xdpi="910"
         inkscape:export-ydpi="910" />
      <path
         sodipodi:nodetypes="cc"
         inkscape:connector-curvature="0"
         id="path1013-8"
         d="m -237.18861,91.711376 c -5.84132,-1.95947 -11.47613,2.20306 -10.28997,7.07783"
         style="display:inline;fill:none;stroke:#ffb74d;stroke-width:2.5;stroke-linecap:round;stroke-linejoin:miter;stroke-miterlimit:4;stroke-dasharray:none;stroke-opacity:1"
         inkscape:export-filename="/home/starlord/path1203-8-2.png"
         inkscape:export-xdpi="910"
         inkscape:export-ydpi="910" />
      <path
         style="display:inline;fill:none;stroke:#ffb74d;stroke-width:2.5;stroke-linecap:round;stroke-linejoin:miter;stroke-miterlimit:4;stroke-dasharray:none;stroke-opacity:1"
         d="m -242.33117,98.888306 c -0.49437,-0.77751 0.0379,-4.18769 3.76449,-3.06096"
         id="path1023-7"
         inkscape:connector-curvature="0"
         sodipodi:nodetypes="cc"
         inkscape:export-filename="/home/starlord/path1203-8-2.png"
         inkscape:export-xdpi="910"
         inkscape:export-ydpi="910" />
    </g>
    <path
       inkscape:export-ydpi="910"
       inkscape:export-xdpi="910"
       inkscape:export-filename="/home/starlord/path1203-8-2.png"
       style="display:inline;fill:none;stroke:#ffb74d;stroke-width:2.70000005;stroke-linecap:round;stroke-linejoin:miter;stroke-miterlimit:4;stroke-dasharray:none;stroke-opacity:1"
       d="m 38.374717,215.68416 c 1.332118,-0.28254 2.223194,-11.47894 3.637756,-11.2755"
       id="path999-3"
       inkscape:connector-curvature="0"
       sodipodi:nodetypes="cc" />
    <path
       inkscape:export-ydpi="910"
       inkscape:export-xdpi="910"
       inkscape:export-filename="/home/starlord/path1203-8-2.png"
       sodipodi:nodetypes="cc"
       inkscape:connector-curvature="0"
       id="path1001-6"
       d="m 41.918853,218.68471 c 1.332127,-0.28254 2.223203,-11.47894 3.637754,-11.2755"
       style="display:inline;fill:none;stroke:#ffb74d;stroke-width:2.70000005;stroke-linecap:round;stroke-linejoin:miter;stroke-miterlimit:4;stroke-dasharray:none;stroke-opacity:1" />
  </g>
  <g
     style="display:inline"
     inkscape:label="front"
     id="g1027"
     inkscape:groupmode="layer">
    <path
       style="fill:#ffffff;fill-opacity:1;stroke:none;stroke-width:0.09164069;stroke-miterlimit:4;stroke-dasharray:none;stroke-opacity:1"
       d="m 43.790015,29.383034 c -0.22936,-0.03106 -0.47277,0.0097 -0.67382,0.113282 -0.29657,0.150097 -0.47235,0.414819 -0.52735,0.783203 -0.0191,0.125953 -0.02587,0.243679 -0.01367,0.363281 0.03473,0.255856 0.10196,0.380989 0.40039,0.607422 0.32016,0.263735 1.76731,1.130133 4.28321,2.634765 0.86071,0.514848 2.02848,1.211927 3.11914,1.863282 l 1.6582,-2.773438 c -1.4775,-0.700473 -3.05903,-1.428796 -4.81445,-2.207031 -0.78211,-0.346774 -1.55435,-0.682847 -2.2461,-0.980469 -0.55607,-0.238823 -0.9765,-0.385207 -1.18555,-0.404297 z m -2.49023,3.832032 c -0.07319,-0.0014 -0.13249,0.01018 -0.19531,0.02539 -0.37139,0.08211 -0.62452,0.302529 -0.75391,0.667969 -0.0174,0.04994 -0.02952,0.100427 -0.04492,0.154297 -0.13484,0.555613 0.03531,0.948429 0.83789,1.429687 0.18346,0.114984 0.59365,0.359554 1.2168,0.730469 0.9194,0.547843 2.25023,1.341303 3.37304,2.011719 0.44583,0.266229 1.5675,0.936285 2.32813,1.390625 l 1.1543,-1.933594 c -5.67903,-3.400122 -7.15822,-4.270541 -7.64258,-4.425781 -0.11347,-0.0355 -0.20025,-0.04935 -0.27344,-0.05078 z m 13.44336,1.082031 -1.78906,2.990234 c 0.28318,0.169322 0.57708,0.345403 0.88476,0.529297 l 1.83399,-3.066406 c -0.2884,-0.145839 -0.63174,-0.304959 -0.92969,-0.453125 z m 3.58789,1.853516 -1.91797,3.207031 c 0.01464,0.0088 0.03818,0.02254 0.05274,0.03125 0.05469,0.03276 0.06166,0.0382 0.11523,0.07031 l 1.92188,-3.210937 c -0.06009,-0.03282 -0.11141,-0.06476 -0.17188,-0.09766 z m -19.43555,0.935546 c -0.163,0.01806 -0.30498,0.08409 -0.44921,0.179688 -0.44603,0.293264 -0.6353,0.977035 -0.36329,1.460937 0.0185,0.03384 0.03604,0.05753 0.05664,0.0918 0.07568,0.130335 0.39892,0.36434 1.24805,0.882813 1.54794,0.93358 3.29532,1.975126 5.85352,3.5 0.11413,0.06808 0.36776,0.218809 0.50195,0.298828 l 1.15625,-1.933594 c -0.43054,-0.257133 -0.76292,-0.453835 -1.18945,-0.708984 -1.2912,-0.772425 -2.79195,-1.671473 -4.00977,-2.400391 -0.15033,-0.08954 -0.28676,-0.171714 -0.41016,-0.246094 -0.86754,-0.518065 -1.55354,-0.904968 -1.8164,-1.017578 -0.23143,-0.09541 -0.41513,-0.125482 -0.57813,-0.107422 z m 22.2168,0.642578 -1.9707,3.292969 c 1.28827,0.796062 2.12585,1.336686 2.30664,1.53125 0.0257,0.02148 0.04178,0.04122 0.05078,0.05859 0.16704,0.263234 0.19238,0.457083 0.11328,0.757813 -0.05723,0.220762 -0.18557,0.454932 -0.32617,0.576171 -0.04669,0.03738 -0.09639,0.07502 -0.15039,0.109375 -0.29363,0.176666 -0.5862,0.23678 -1.00977,0.07422 -0.22325,-0.09417 -0.79443,-0.417558 -1.67383,-0.933594 -0.14119,-0.08319 -0.30021,-0.178452 -0.45117,-0.267578 l -1.16406,1.945313 c 0.08737,0.05242 0.24447,0.146628 0.32227,0.193359 0.89836,0.540051 1.49935,0.91418 1.69921,1.058594 0.18591,0.14064 0.30343,0.280915 0.35743,0.408203 0.119,0.254766 0.1371,0.542987 0.0625,0.802734 -0.09462,0.330558 -0.23133,0.487662 -0.58008,0.658204 -0.12385,0.06124 -0.2358,0.10409 -0.34766,0.11914 -0.13156,0.02878 -0.24024,0.01768 -0.46875,-0.07031 -0.21598,-0.09225 -1.00712,-0.548508 -2.19336,-1.246094 l -1.16601,1.947266 c 0.31004,0.185154 0.59442,0.353099 0.79883,0.476562 0.90628,0.546538 1.26033,0.800257 1.4707,1.050781 0.05987,0.06752 0.1014,0.128808 0.125,0.179688 0.23603,0.523538 0.03811,1.109577 -0.4336,1.388672 -0.22346,0.131521 -0.45887,0.181853 -0.74218,0.126953 -0.17354,-0.03507 -0.28344,-0.06305 -0.67969,-0.285156 -0.26141,-0.148131 -1.02129,-0.600756 -1.69727,-1.001954 l -1.95703,3.273438 c 4.26889,2.543954 7.44876,3.745538 9.87891,3.728516 0.07111,-0.0056 0.14419,-4.07e-4 0.21289,-0.0039 0.62128,-0.01029 1.40565,-0.127468 2.43359,-0.345703 0.23444,-0.05287 0.47641,-0.09828 0.72657,-0.15039 1.57942,-0.326958 2.35138,-0.395674 3.31054,-0.314454 0.04998,-9.6e-4 0.10345,0.0098 0.15625,0.01563 1.16187,0.117287 2.41905,0.493547 3.33594,0.990235 0.13592,0.07102 0.32771,0.179315 0.56445,0.320312 1.3257,0.785713 4.05302,2.41493 6.84766,4.087891 l 35.062505,21.386719 2.83789,-4.986328 C 116.31851,78.415202 86.163785,60.76104 84.891585,60.002175 c -0.50678,-0.302318 -1.03094,-0.614501 -1.57813,-0.941406 -9.82848,-5.865124 -9.84316,-5.865645 -10.44922,-6.490235 -0.07567,-0.07821 -0.14561,-0.153048 -0.22461,-0.236328 -0.50569,-0.532707 -0.81294,-0.943128 -1.27148,-1.720703 -0.60431,-1.019001 -0.80801,-1.496624 -1.17578,-2.832031 -0.0294,-0.106515 -0.05679,-0.208914 -0.08399,-0.310547 -0.33254,-1.244771 -0.49903,-1.721662 -1.01367,-2.701172 -0.4214,-0.806578 -0.69438,-1.232367 -1.11133,-1.728516 -0.10144,-0.120546 -0.21039,-0.243919 -0.33007,-0.375 -1.08812,-1.197003 -2.44608,-2.300181 -4.52735,-3.685546 -0.61605,-0.409827 -1.30063,-0.82908 -2.01367,-1.251954 z m -9.32031,1.501954 -1.15625,1.93164 c 0.35533,0.212299 0.52274,0.31298 0.88476,0.529297 l 1.15625,-1.931641 c -0.29895,-0.178983 -0.5902,-0.353022 -0.88476,-0.529296 z M 36.793925,40.9553 c -0.09683,-0.01628 -0.15053,0.01043 -0.24023,0.01953 -0.26049,0.03846 -0.41618,0.123861 -0.60742,0.31836 -0.19922,0.201853 -0.31551,0.488336 -0.3125,0.765625 0.0012,0.136451 0.01901,0.257921 0.07031,0.375 0.15321,0.374127 1.33228,1.326734 3.82617,3.242187 1.12216,0.861413 2.2694,1.720439 3.39062,2.542969 l 1.66211,-2.779297 c -1.66688,-0.99715 -3.29432,-1.971235 -4.49218,-2.6875 -2.64361,-1.580579 -2.98266,-1.770645 -3.29688,-1.796874 z m 18.45703,0.34375 -1.15429,1.933594 c 0.06153,0.03681 0.10608,0.06259 0.16796,0.09961 l 1.15625,-1.93164 c -0.05517,-0.03299 -0.11945,-0.0715 -0.16992,-0.101564 z m -5.77734,1.804687 -1.1543,1.933594 c 0.07479,0.04467 0.1098,0.06607 0.18555,0.111328 0.22575,0.134855 0.46555,0.27836 0.69922,0.417969 l 1.15625,-1.933594 c -0.2271,-0.135339 -0.62098,-0.370888 -0.88672,-0.529297 z m 3.46484,2.066407 -1.1582,1.935547 c 0.0607,0.03625 0.10647,0.06288 0.16797,0.09961 l 1.1582,-1.935547 c -0.05804,-0.03456 -0.11342,-0.06713 -0.16797,-0.09961 z m -5.78125,1.808593 -1.78906,2.994141 c 0.27387,0.193658 0.57538,0.41724 0.83984,0.601563 l 1.83399,-3.066407 c -0.28002,-0.16731 -0.61301,-0.366812 -0.88477,-0.529297 z m 3.46094,2.06836 -1.92383,3.214844 c 0.05746,0.03767 0.10891,0.06821 0.16602,0.105468 l 1.92578,-3.21875 c -0.05864,-0.03499 -0.10958,-0.06671 -0.16797,-0.101562 z"
       id="path853-5-6"
       inkscape:connector-curvature="0" />
    <path
       inkscape:export-ydpi="910"
       inkscape:export-xdpi="910"
       inkscape:export-filename="/home/starlord/path1203-8-2.png"
       sodipodi:nodetypes="ccc"
       inkscape:connector-curvature="0"
       id="path1203-8-2"
       d="m 40.693875,51.659886 6.94182,-11.60679 5.831,-9.749522"
       style="display:inline;fill:none;stroke:#ffb74d;stroke-width:2.70000005;stroke-linecap:round;stroke-linejoin:miter;stroke-miterlimit:4;stroke-dasharray:none;stroke-opacity:1" />
    <path
       inkscape:export-ydpi="910"
       inkscape:export-xdpi="910"
       inkscape:export-filename="/home/starlord/path1203-8-2.png"
       sodipodi:nodetypes="cccc"
       inkscape:connector-curvature="0"
       id="path1203-8-1"
       d="m 45.472065,51.524044 4.96168,-8.295981 0.65593,-1.096718 5.86771,-9.810915"
       style="display:inline;fill:none;stroke:#ffb74d;stroke-width:2.70000005;stroke-linecap:round;stroke-linejoin:miter;stroke-miterlimit:4;stroke-dasharray:none;stroke-opacity:1" />
    <path
       inkscape:export-ydpi="910"
       inkscape:export-xdpi="910"
       inkscape:export-filename="/home/starlord/path1203-8-2.png"
       sodipodi:nodetypes="ccc"
       inkscape:connector-curvature="0"
       id="path1203-8"
       d="m 48.399725,54.303189 5.80478,-9.705644 6.0892,-10.181223"
       style="display:inline;fill:none;stroke:#ffb74d;stroke-width:2.70000005;stroke-linecap:round;stroke-linejoin:miter;stroke-miterlimit:4;stroke-dasharray:none;stroke-opacity:1" />
  </g>
</svg>
